<?xml version="1.0" standalone="no"?>
<!DOCTYPE svg PUBLIC "-//W3C//DTD SVG 20010904//EN"
 "http://www.w3.org/TR/2001/REC-SVG-20010904/DTD/svg10.dtd">
<svg version="1.0" xmlns="http://www.w3.org/2000/svg"
 width="1920.000000pt" height="1920.000000pt" viewBox="0 0 1920.000000 1920.000000"
 preserveAspectRatio="xMidYMid meet">

<g transform="translate(0.000000,1920.000000) scale(0.100000,-0.100000)"
fill="#000000" stroke="none">
<path d="M4805 13988 c-27 -5 -77 -13 -110 -19 -33 -6 -64 -14 -70 -19 -5 -4
-35 -13 -65 -20 -73 -17 -294 -166 -394 -266 -96 -96 -216 -245 -216 -269 0
-4 -8 -19 -19 -33 -10 -15 -22 -43 -26 -62 -4 -19 -13 -48 -21 -65 -7 -16 -22
-67 -34 -112 -17 -70 -20 -113 -20 -301 0 -121 5 -244 11 -274 26 -126 31
-145 51 -188 50 -107 86 -170 128 -225 20 -27 53 -73 72 -102 33 -50 189 -185
247 -214 14 -7 38 -21 53 -31 14 -10 32 -18 40 -18 7 0 24 -9 38 -20 14 -11
32 -20 40 -20 9 0 31 -11 50 -24 19 -13 51 -27 70 -31 19 -4 44 -13 55 -19 39
-25 116 -36 239 -36 l126 0 0 -1366 c0 -1420 0 -1420 42 -1489 10 -16 18 -36
18 -43 0 -31 96 -148 155 -189 52 -35 156 -53 285 -47 137 6 204 19 247 49 54
36 139 160 154 224 15 64 14 -43 17 1779 2 1256 3 1312 20 1312 10 0 22 4 27
8 6 5 37 15 70 22 33 7 65 16 70 21 6 4 29 11 52 15 40 6 41 6 48 -27 4 -19
16 -46 26 -61 11 -14 19 -32 19 -40 0 -7 17 -35 38 -62 41 -54 44 -59 63 -100
8 -16 26 -42 42 -57 15 -15 27 -33 27 -39 0 -17 37 -67 90 -120 25 -25 62 -65
82 -89 21 -23 65 -65 99 -92 34 -27 67 -56 73 -63 11 -15 212 -148 279 -185
20 -12 54 -30 75 -42 20 -12 42 -25 47 -29 6 -4 32 -13 60 -19 27 -7 54 -16
60 -20 5 -5 35 -14 65 -21 30 -7 60 -16 65 -20 23 -17 110 -30 197 -30 52 0
98 -4 104 -9 46 -42 442 -42 489 0 5 5 36 9 70 9 57 0 116 11 160 29 11 5 45
14 75 20 30 6 73 20 95 31 83 40 132 60 146 60 8 0 25 9 39 20 14 11 29 20 34
20 5 0 36 19 70 43 33 23 74 49 90 57 16 8 41 26 55 40 14 14 62 55 106 90 93
75 116 97 169 165 22 28 57 66 77 85 20 19 66 79 102 132 l65 97 28 -54 c15
-30 39 -68 53 -85 14 -16 44 -50 66 -76 22 -26 52 -59 66 -73 14 -14 41 -46
59 -71 46 -60 76 -90 130 -128 25 -17 74 -54 110 -82 36 -27 70 -50 76 -50 6
0 22 -10 35 -23 34 -33 85 -67 101 -67 7 0 24 -9 38 -20 14 -11 31 -20 38 -20
8 0 26 -8 40 -18 15 -11 49 -24 77 -31 27 -7 54 -16 60 -20 5 -5 35 -14 65
-21 30 -7 60 -16 65 -20 20 -15 106 -30 167 -30 35 0 68 -4 73 -9 47 -42 443
-42 489 0 6 5 52 9 104 9 87 0 174 13 197 30 6 4 35 13 65 20 30 7 64 19 75
25 11 7 31 16 45 20 34 9 122 49 184 84 51 29 257 172 311 215 59 49 268 257
295 297 11 15 20 34 20 43 0 9 6 19 14 22 16 6 66 78 66 94 0 7 20 39 44 73
24 34 47 78 51 97 4 19 13 45 21 57 8 12 14 29 14 37 0 11 7 12 43 3 23 -5 47
-13 52 -17 6 -4 37 -13 70 -20 92 -19 113 -30 119 -63 11 -53 6 -161 -9 -217
-13 -47 -15 -243 -15 -1375 0 -1322 1 -1354 35 -1430 7 -16 16 -46 20 -65 9
-42 35 -81 90 -135 90 -90 147 -109 330 -109 183 0 270 29 324 109 13 19 27
35 31 35 10 0 60 77 60 93 0 7 9 30 20 52 38 74 46 145 27 227 -16 67 -17 181
-17 1346 l0 1272 138 0 c134 0 186 7 247 35 17 7 46 16 65 20 19 4 51 18 70
31 19 13 41 24 50 24 8 0 26 9 40 20 14 11 31 20 38 20 7 0 40 18 72 40 32 22
63 40 67 40 23 0 131 96 160 141 18 28 47 69 66 90 41 45 157 230 157 250 0 8
9 28 19 45 41 67 61 212 61 432 0 112 -4 222 -9 245 -5 23 -14 67 -21 98 -6
31 -20 74 -30 95 -11 21 -20 45 -20 54 0 9 -20 45 -45 81 -25 35 -45 68 -45
72 -1 56 -391 426 -448 427 -8 0 -26 8 -40 18 -15 11 -49 24 -77 31 -27 7 -54
16 -60 21 -5 4 -39 13 -75 20 -36 6 -87 16 -113 21 -27 5 -122 9 -212 9 -90 0
-185 -4 -212 -9 -26 -5 -77 -15 -112 -21 -35 -6 -73 -17 -85 -25 -11 -7 -32
-16 -46 -20 -14 -3 -45 -16 -70 -27 -25 -12 -56 -26 -69 -32 -13 -6 -36 -22
-50 -36 -14 -14 -44 -39 -66 -55 -107 -79 -153 -123 -215 -206 -60 -82 -69
-100 -85 -173 -19 -87 -16 -232 7 -325 20 -84 141 -231 190 -231 7 0 27 -8 43
-18 92 -56 245 -56 365 0 25 12 56 26 69 32 13 6 58 45 100 86 102 101 137
125 196 135 99 16 150 -1 226 -73 50 -49 76 -100 85 -168 5 -43 3 -60 -13 -87
-11 -18 -23 -44 -26 -57 -10 -41 -82 -108 -129 -121 -24 -7 -47 -16 -52 -21
-13 -11 -70 -10 -82 1 -5 5 -38 15 -74 21 -36 7 -74 16 -85 21 -11 4 -40 13
-65 20 -25 6 -49 14 -55 19 -5 4 -35 13 -65 20 -30 7 -59 16 -65 20 -5 4 -26
11 -45 15 -19 4 -45 13 -56 20 -12 8 -50 19 -85 26 -35 6 -73 15 -84 20 -11 4
-40 13 -65 20 -25 6 -49 14 -55 19 -5 4 -26 11 -45 15 -19 4 -48 15 -65 24
-16 10 -52 23 -80 30 -27 7 -54 16 -60 21 -5 4 -37 14 -70 21 -33 7 -64 16
-70 20 -5 4 -37 13 -70 20 -33 7 -64 16 -70 20 -5 4 -37 13 -70 20 -33 7 -64
15 -70 19 -5 4 -35 13 -65 20 -30 7 -59 16 -65 20 -5 4 -37 14 -70 21 -33 7
-64 15 -70 19 -5 4 -35 13 -65 20 -30 7 -59 16 -65 20 -5 4 -26 11 -45 15 -19
4 -46 15 -60 25 -14 9 -50 23 -80 30 -30 7 -59 16 -65 20 -5 4 -32 13 -60 19
-27 7 -54 16 -60 20 -5 5 -35 14 -65 21 -30 7 -59 16 -65 20 -5 4 -35 13 -65
20 -30 7 -59 16 -65 20 -5 4 -35 13 -65 20 -30 7 -59 16 -65 20 -5 5 -39 14
-75 20 -36 7 -72 15 -80 20 -8 4 -40 13 -70 20 -30 7 -59 16 -65 20 -5 4 -26
11 -45 15 -19 4 -49 15 -66 25 -16 9 -55 23 -85 30 -30 7 -58 16 -64 20 -5 4
-35 13 -65 20 -30 7 -59 16 -65 20 -5 4 -37 14 -70 21 -33 7 -64 16 -70 19 -5
4 -26 11 -45 15 -19 4 -44 13 -55 19 -11 7 -45 18 -75 25 -30 7 -64 16 -75 21
-11 5 -40 14 -65 21 -25 6 -49 14 -55 19 -5 4 -35 13 -65 19 -30 7 -64 17 -75
22 -11 5 -48 15 -83 23 -35 8 -69 19 -75 24 -7 5 -28 13 -47 17 -19 4 -48 13
-65 20 -65 29 -118 35 -318 35 -191 0 -283 -9 -312 -30 -5 -4 -35 -13 -65 -20
-30 -7 -64 -19 -75 -25 -11 -7 -45 -18 -75 -25 -30 -7 -59 -16 -65 -20 -5 -4
-35 -13 -65 -20 -30 -7 -59 -16 -65 -20 -5 -4 -35 -13 -65 -20 -30 -7 -59 -16
-65 -20 -5 -4 -37 -12 -70 -19 -33 -7 -64 -17 -70 -21 -5 -4 -35 -13 -65 -20
-30 -7 -60 -16 -65 -21 -6 -4 -33 -13 -60 -20 -28 -6 -54 -15 -60 -19 -5 -4
-35 -13 -65 -20 -30 -7 -59 -16 -65 -20 -5 -4 -36 -12 -69 -19 -32 -7 -72 -21
-90 -31 -17 -10 -47 -21 -66 -25 -19 -4 -41 -11 -50 -15 -8 -4 -44 -13 -80
-20 -36 -6 -69 -15 -75 -20 -5 -4 -35 -13 -65 -20 -30 -7 -59 -16 -65 -20 -5
-4 -35 -13 -65 -20 -30 -7 -60 -16 -65 -21 -6 -4 -33 -13 -60 -20 -28 -6 -54
-15 -60 -19 -5 -5 -30 -13 -55 -19 -25 -7 -54 -16 -65 -21 -11 -5 -45 -14 -75
-21 -30 -7 -64 -18 -75 -25 -11 -6 -36 -15 -55 -19 -19 -4 -44 -13 -55 -21
-11 -7 -42 -18 -70 -25 -27 -6 -54 -15 -60 -19 -5 -4 -35 -13 -65 -20 -30 -7
-59 -16 -65 -20 -5 -4 -35 -13 -65 -20 -30 -7 -59 -16 -65 -20 -5 -5 -30 -13
-55 -19 -25 -7 -54 -16 -65 -20 -11 -5 -49 -14 -85 -21 -36 -6 -69 -15 -75
-19 -5 -4 -37 -13 -70 -20 -33 -7 -64 -16 -70 -20 -5 -4 -37 -13 -70 -20 -33
-7 -65 -17 -70 -21 -6 -5 -33 -14 -60 -21 -28 -7 -63 -20 -80 -30 -16 -9 -46
-20 -65 -24 -19 -4 -39 -11 -45 -15 -5 -4 -35 -13 -65 -20 -30 -7 -59 -16 -65
-20 -5 -4 -35 -13 -65 -20 -30 -7 -59 -16 -65 -20 -5 -4 -35 -13 -65 -20 -30
-7 -60 -16 -65 -21 -6 -4 -33 -13 -60 -20 -28 -6 -54 -15 -60 -19 -5 -4 -35
-13 -65 -20 -30 -7 -59 -16 -65 -20 -5 -4 -36 -14 -68 -21 -32 -7 -60 -16 -63
-21 -7 -10 -87 -10 -100 0 -5 5 -28 14 -52 21 -49 14 -119 79 -129 120 -3 14
-15 40 -26 59 -43 72 -11 171 83 263 69 66 137 89 211 69 46 -13 160 -93 179
-127 11 -19 140 -113 156 -113 3 0 18 -8 32 -18 79 -55 276 -55 367 0 17 10
36 18 43 18 53 0 167 149 192 251 18 70 18 258 0 329 -12 52 -54 130 -70 130
-3 0 -21 20 -39 45 -48 67 -89 107 -157 153 -34 23 -78 56 -97 74 -19 19 -46
38 -59 44 -12 6 -43 20 -68 32 -25 12 -49 22 -53 22 -5 0 -21 9 -36 19 -15 11
-55 24 -89 30 -34 6 -88 16 -120 21 -70 12 -367 11 -437 -2z m4942 -1032 c43
-13 119 -36 168 -51 50 -14 115 -35 145 -45 95 -32 367 -117 565 -176 105 -31
206 -62 225 -69 19 -7 64 -22 100 -33 97 -29 316 -98 485 -152 194 -62 390
-123 485 -149 61 -18 143 -47 158 -57 8 -5 -47 -94 -102 -167 -181 -241 -458
-381 -751 -380 -119 1 -258 27 -346 65 l-49 20 43 28 c92 58 140 142 172 304
13 66 12 75 -11 165 -14 53 -37 113 -51 133 -37 54 -104 113 -161 142 -111 56
-92 55 -1204 56 -975 0 -1027 0 -1106 -19 -91 -21 -131 -44 -207 -117 -55 -54
-85 -109 -109 -201 -20 -76 -20 -122 -1 -214 22 -102 40 -136 117 -210 l68
-66 -37 -16 c-143 -63 -407 -85 -566 -48 -249 59 -461 212 -600 433 l-58 92
33 12 c18 7 80 26 138 44 58 17 139 42 180 55 246 77 470 148 505 160 22 7 74
23 115 34 41 12 161 49 265 82 105 33 217 69 250 79 56 17 167 52 545 170 249
78 353 109 380 113 68 11 144 5 217 -17z"/>
<path d="M6635 10786 c-22 -7 -57 -20 -77 -29 -21 -9 -43 -17 -50 -17 -38 0
-208 -160 -208 -195 0 -4 -8 -19 -18 -33 -42 -60 -42 -59 -42 -1687 0 -1628 0
-1627 42 -1687 10 -14 18 -32 18 -38 0 -36 59 -103 130 -149 95 -60 140 -71
290 -71 177 0 229 18 331 112 50 45 123 163 137 220 9 35 12 442 12 1593 0
1571 -1 1604 -36 1660 -7 11 -18 43 -25 70 -7 28 -22 65 -35 84 -27 41 -137
116 -184 126 -19 4 -44 13 -55 19 -54 34 -159 43 -230 22z"/>
<path d="M12415 10787 c-22 -7 -49 -17 -60 -23 -11 -7 -36 -15 -55 -19 -19 -4
-47 -16 -62 -26 -14 -11 -29 -19 -33 -19 -31 0 -125 -99 -125 -132 0 -7 -11
-29 -24 -48 -13 -20 -29 -60 -35 -90 -18 -81 -11 -3200 7 -3250 17 -50 152
-226 193 -254 52 -35 115 -46 259 -46 191 0 239 16 324 104 61 65 97 124 113
185 8 31 18 61 22 66 29 38 31 130 31 1610 0 1528 -1 1564 -36 1620 -6 11 -15
36 -19 55 -9 41 -33 77 -90 135 -58 57 -94 81 -135 90 -19 4 -44 13 -55 19
-28 17 -107 36 -147 35 -18 -1 -51 -6 -73 -12z"/>
<path d="M9445 9518 c-22 -6 -59 -24 -82 -40 -54 -37 -145 -128 -159 -159 -6
-13 -20 -44 -32 -69 -11 -25 -26 -63 -31 -85 -16 -59 -15 -4589 1 -4653 6 -26
19 -59 30 -74 10 -14 18 -31 18 -37 0 -15 50 -91 60 -91 4 0 18 -11 31 -26 79
-84 157 -108 334 -102 126 5 203 24 260 62 42 28 118 108 131 137 6 13 20 44
32 69 11 25 26 63 31 85 15 57 15 4564 0 4620 -6 22 -19 58 -30 81 -10 22 -19
46 -19 52 0 15 -50 92 -59 92 -3 0 -27 19 -51 43 -64 61 -98 82 -152 95 -57
14 -258 14 -313 0z"/>
<path d="M7815 9188 c-22 -6 -52 -19 -67 -29 -14 -11 -31 -19 -38 -19 -32 0
-124 -85 -180 -165 -15 -22 -33 -67 -40 -100 -7 -33 -17 -64 -21 -70 -4 -5
-12 -36 -19 -67 -11 -46 -10 -69 0 -118 7 -33 17 -63 22 -66 6 -4 9 -594 8
-1487 -1 -1193 1 -1491 12 -1529 30 -108 152 -222 273 -254 65 -18 246 -18
311 0 109 29 241 149 259 236 4 19 13 44 19 55 35 56 36 92 36 1627 0 1466 -2
1546 -29 1613 -5 11 -14 49 -20 84 -7 35 -23 80 -36 99 -26 38 -113 114 -149
129 -11 5 -41 19 -66 31 -91 42 -186 53 -275 30z"/>
<path d="M11185 9186 c-22 -6 -58 -20 -80 -30 -22 -10 -51 -24 -64 -30 -30
-14 -110 -90 -138 -131 -11 -16 -24 -46 -28 -65 -4 -19 -13 -48 -20 -65 -8
-16 -18 -48 -24 -70 -15 -56 -15 -3104 0 -3160 6 -22 19 -58 30 -81 10 -22 19
-46 19 -53 0 -16 34 -66 72 -105 15 -17 28 -33 28 -37 0 -15 82 -59 138 -73
71 -19 252 -21 320 -4 52 12 78 28 167 102 72 59 98 95 114 160 17 68 16 3266
0 3342 -14 64 -102 186 -162 226 -23 15 -46 28 -50 28 -5 0 -21 8 -35 18 -57
40 -200 54 -287 28z"/>
</g>
</svg>
